<?xml version="1.0" standalone="no"?><!DOCTYPE svg PUBLIC "-//W3C//DTD SVG 1.1//EN" "http://www.w3.org/Graphics/SVG/1.1/DTD/svg11.dtd"><svg t="1719732645575" class="icon" viewBox="0 0 1024 1024" version="1.1" xmlns="http://www.w3.org/2000/svg" p-id="4341" width="16" height="16" xmlns:xlink="http://www.w3.org/1999/xlink"><path d="M309.248 838.656v-172.544l-7.168-1.536c-31.744-7.168-54.784-35.84-54.784-68.096v-163.328c0-38.4 31.232-70.144 70.144-70.144h126.464c38.4 0 70.144 31.232 70.144 70.144v7.168c-7.168 3.072-14.336 6.144-20.992 9.728v-17.408c0-27.136-22.016-48.64-48.64-48.64H317.44c-27.136 0-48.64 22.016-48.64 48.64v163.328c0 27.136 22.016 48.64 48.64 48.64h12.8V838.144h-20.992zM380.928 303.616c-47.616 0-86.528-38.912-86.528-86.528s38.912-86.528 86.528-86.528 86.528 38.912 86.528 86.528-38.912 86.528-86.528 86.528z m0-152.064c-35.84 0-65.536 29.184-65.536 65.536s29.184 65.536 65.536 65.536c35.84 0 65.536-29.184 65.536-65.536s-29.696-65.536-65.536-65.536zM607.744 863.744c-106.496 0-193.536-86.528-193.536-193.536s86.528-193.536 193.536-193.536 193.536 86.528 193.536 193.536-86.528 193.536-193.536 193.536z m0-365.568c-94.72 0-172.032 77.312-172.032 172.032s77.312 172.032 172.032 172.032 172.544-77.312 172.544-172.032-77.312-172.032-172.544-172.032z" fill="#13227a" p-id="4342"></path><path d="M600.576 791.04v-28.672l-8.192-1.024c-30.208-3.072-55.296-14.336-67.072-29.696l-2.56-3.584 22.016-5.632 1.024 1.024c9.216 8.192 26.112 14.336 44.032 16.384l10.24 1.536v-64l-7.68-1.024c-29.696-4.608-46.08-11.776-53.248-15.36l-1.024-0.512c-7.68-5.12-20.48-16.384-20.48-32.768 0-25.088 31.232-46.08 74.752-50.688l8.192-1.024v-28.16h20.48v28.16l8.192 1.024c26.624 3.072 49.664 12.8 61.952 26.112l3.072 3.072-21.504 7.68-1.024-1.024c-9.216-7.168-23.552-12.288-39.936-14.848l-10.752-1.536v66.048l7.68 1.536c21.504 3.584 38.912 8.704 50.176 14.336 4.608 2.048 8.704 4.608 11.264 6.656l2.56 2.56c6.144 7.168 9.216 14.848 9.216 23.04 0 24.576-30.208 45.568-72.704 50.688l-8.192 1.024v29.184h-20.48v-0.512z m20.48-49.664l10.752-1.536c24.064-3.584 49.152-14.848 49.152-29.184 0-13.824-25.6-25.6-49.152-29.184l-10.752-1.536v61.44z m-30.72-143.36c-28.672 4.096-51.712 16.896-51.712 29.184 0 12.8 22.528 25.6 51.712 29.184l10.24 1.536v-61.44l-10.24 1.536z" fill="#13227a" p-id="4343"></path></svg>