<?xml version="1.0" standalone="no"?><!DOCTYPE svg PUBLIC "-//W3C//DTD SVG 1.1//EN" "http://www.w3.org/Graphics/SVG/1.1/DTD/svg11.dtd"><svg t="1719816334034" class="icon" viewBox="0 0 1024 1024" version="1.1" xmlns="http://www.w3.org/2000/svg" p-id="10718" xmlns:xlink="http://www.w3.org/1999/xlink" width="16" height="16"><path d="M512 0C229.376 0 0 229.376 0 512s229.376 512 512 512h453.12c21.504 0 38.912-17.408 38.912-38.912 0-10.24-4.096-20.48-11.776-27.648l-186.368-181.248c-15.36-14.848-39.936-14.336-54.784 0.512s-14.336 39.936 0.512 54.784l117.76 114.176H512c-239.616 0-433.664-194.56-433.664-434.176s194.56-433.664 434.176-433.664 433.664 194.56 433.664 434.176c0 27.648-2.56 55.808-8.192 82.944-4.096 20.992 9.728 41.472 30.72 45.568 20.992 4.096 41.472-9.728 45.568-30.72 54.272-276.992-126.976-546.304-404.48-600.064C577.536 3.072 544.768 0 512 0z" fill="#b9730e" p-id="10719"></path><path d="M530.432 856.576c22.528 0 40.448-18.432 40.448-40.448v-105.472h111.104c22.528 0 40.448-18.432 40.448-40.448 0-22.528-18.432-40.448-40.448-40.448h-111.104v-70.656h108.544c22.528-1.024 39.936-19.456 39.424-41.984-0.512-21.504-17.92-38.4-39.424-39.424h-108.544c2.048-1.536 3.584-2.56 5.12-4.608l134.144-134.144c15.872-15.872 15.872-41.472 0-57.344s-41.472-15.872-57.344 0l-122.368 122.368-128-128c-16.896-14.848-42.496-12.8-57.344 4.096-13.312 15.36-13.312 38.4 0.512 53.76l134.144 134.144c4.608 4.608 10.24 7.68 16.384 9.728H380.928c-22.528 1.024-39.936 19.456-39.424 41.984 0.512 21.504 17.92 38.4 39.424 39.424h108.544V629.76H384c-22.528 0-40.448 18.432-40.448 40.448 0 22.528 18.432 40.448 40.448 40.448h105.472v105.472c0 22.016 18.432 40.448 40.96 40.448zM522.752 476.16l1.024 0.512h-3.584c1.024 0 1.536 0 2.56-0.512z" fill="#b9730e" p-id="10720"></path></svg>