<?xml version="1.0" standalone="no"?><!DOCTYPE svg PUBLIC "-//W3C//DTD SVG 1.1//EN" "http://www.w3.org/Graphics/SVG/1.1/DTD/svg11.dtd"><svg t="1719816462524" class="icon" viewBox="0 0 1024 1024" version="1.1" xmlns="http://www.w3.org/2000/svg" p-id="15851" xmlns:xlink="http://www.w3.org/1999/xlink" width="16" height="16"><path d="M563.456 825.9072h-97.3568c-103.2448 0-186.9312-83.6864-186.9312-186.9312v-99.5072h471.1936v99.5072c0.0256 103.2448-83.6864 186.9312-186.9056 186.9312z" fill="#97E9FF" p-id="15852"></path><path d="M91.5456 881.1776H937.984v46.08H91.5456zM805.5552 350.7712h-45.3376v-23.5264H140.3392v208.7936c0 162.7136 132.3776 295.1168 295.1168 295.1168h29.6448c104.1152 0 195.7888-54.1952 248.3456-135.8336h28.032c96.6656 0 175.3344-78.6432 175.3344-175.3344v-57.9328c0-61.3888-49.92-111.2832-111.2576-111.2832zM465.1008 785.024H435.456c-137.3184 0-249.0368-111.7184-249.0368-249.0368v-162.7136h527.7184v162.7136c0 13.9008-1.152 27.5456-3.3536 40.832a263.0144 263.0144 0 0 1-33.5616 83.2512L655.36 695.2704h1.024c-45.7216 54.8096-114.4832 89.7536-191.2832 89.7536zM870.7328 519.936c0 71.2704-57.984 129.2544-129.2544 129.2544h-3.8656c8.4224-20.224 14.6688-41.5488 18.4064-63.7184 4.4544-21.0176 6.7328-42.5472 6.7328-64.2816v-124.3392h42.7776c35.9424 0 65.1776 29.2352 65.1776 65.1776v57.9072zM457.2672 270.08l-15.0528-43.5456c8.8064-3.0464 16.9472-10.8288 17.792-16.9984 0.9472-6.912-9.1136-14.6176-13.4656-17.6128-22.3744-15.36-28.3648-33.8176-29.4656-46.592-2.816-32.9216 23.424-59.5712 26.4192-62.4896l16.1024 16.4864 16.1792 16.384c-4.5312 4.5312-13.6192 16.7936-12.7744 25.7536 0.1536 1.5616 0.5888 6.272 9.6256 12.4928 32.9728 22.6304 34.8416 48.4096 33.0496 61.7728-3.712 27.264-26.9824 46.9504-48.4096 54.3488zM279.68 268.9536l-15.0528-43.5456c5.5552-1.92 10.0096-6.6816 10.3168-8.96 0.0512-0.4608-1.1264-3.7888-8.2176-8.6528-18.9952-13.0304-24.1152-28.9024-25.0624-39.936-2.4064-27.8784 19.5072-50.1248 22.016-52.5568l32.1792 32.9728-16.1024-16.4864 16.2304 16.3584c-3.7632 3.8144-8.8064 11.6736-8.3968 15.7952 0.2048 2.176 3.712 4.8128 5.2224 5.8624 27.8272 19.0976 29.3632 41.2928 27.8016 52.8128-3.1488 23.3216-22.8352 40.0896-40.9344 46.336zM618.1888 268.9536l-15.0528-43.5456c5.5552-1.92 10.0096-6.6816 10.3168-8.96 0.0512-0.4608-1.1264-3.7888-8.2176-8.6528-18.9952-13.0304-24.1152-28.9024-25.0624-39.936-2.4064-27.8784 19.5072-50.1248 22.016-52.5568l32.1792 32.9728-16.1024-16.4864 16.2304 16.3584c-3.7632 3.8144-8.8064 11.6736-8.3968 15.7952 0.2048 2.176 3.712 4.8128 5.2224 5.8624 27.8272 19.0976 29.3632 41.2928 27.8016 52.8128-3.1488 23.3216-22.8352 40.0896-40.9344 46.336z" fill="#3F3F3F" p-id="15853"></path></svg>